<svg width="18" height="18" viewBox="0 0 18 18" fill="none" xmlns="http://www.w3.org/2000/svg">
<path d="M7.48438 15.3062C7.61232 15.5277 7.79634 15.7117 8.01794 15.8397C8.23954 15.9676 8.49091 16.035 8.74678 16.035C9.00266 16.035 9.25403 15.9676 9.47563 15.8397C9.69722 15.7117 9.88124 15.5277 10.0092 15.3062" stroke="#0A0A0A" stroke-width="1.45775" stroke-linecap="round" stroke-linejoin="round"/>
<path d="M2.37793 11.1705C2.28272 11.2748 2.21988 11.4046 2.19707 11.544C2.17425 11.6835 2.19245 11.8265 2.24944 11.9558C2.30643 12.085 2.39975 12.195 2.51806 12.2722C2.63637 12.3494 2.77457 12.3905 2.91584 12.3906H14.5778C14.7191 12.3907 14.8573 12.3497 14.9757 12.2726C15.0941 12.1956 15.1875 12.0858 15.2447 11.9566C15.3018 11.8274 15.3202 11.6844 15.2975 11.545C15.2749 11.4055 15.2122 11.2757 15.1172 11.1712C14.1478 10.1719 13.1201 9.10996 13.1201 5.83076C13.1201 4.6709 12.6593 3.55855 11.8392 2.73841C11.019 1.91827 9.90668 1.45752 8.74683 1.45752C7.58697 1.45752 6.47462 1.91827 5.65448 2.73841C4.83434 3.55855 4.37359 4.6709 4.37359 5.83076C4.37359 9.10996 3.34515 10.1719 2.37793 11.1705Z" stroke="#0A0A0A" stroke-width="1.45775" stroke-linecap="round" stroke-linejoin="round"/>
</svg>
