<svg width="48" height="48" viewBox="0 0 48 48" fill="none" xmlns="http://www.w3.org/2000/svg">
<path d="M0 10C0 4.47715 4.47715 0 10 0H37.9867C43.5095 0 47.9867 4.47715 47.9867 10V37.9867C47.9867 43.5095 43.5095 47.9867 37.9867 47.9867H10C4.47715 47.9867 0 43.5095 0 37.9867V10Z" fill="#E50914" fill-opacity="0.1"/>
<path d="M23.509 14.2947C23.5528 14.2062 23.6204 14.1317 23.7043 14.0797C23.7882 14.0276 23.8849 14 23.9837 14C24.0824 14 24.1792 14.0276 24.263 14.0797C24.3469 14.1317 24.4146 14.2062 24.4584 14.2947L26.7669 18.9707C26.919 19.2785 27.1434 19.5447 27.4211 19.7467C27.6987 19.9486 28.0212 20.0801 28.3608 20.13L33.5235 20.8855C33.6214 20.8996 33.7133 20.9409 33.7889 21.0046C33.8644 21.0683 33.9207 21.1518 33.9513 21.2458C33.9818 21.3398 33.9855 21.4405 33.9618 21.5365C33.9382 21.6325 33.8881 21.7199 33.8173 21.7889L30.0837 25.4246C29.8375 25.6645 29.6533 25.9607 29.5469 26.2876C29.4406 26.6146 29.4152 26.9625 29.4731 27.3014L30.3546 32.4381C30.3718 32.5358 30.3613 32.6365 30.3241 32.7285C30.2869 32.8206 30.2246 32.9004 30.1442 32.9587C30.0639 33.0171 29.9688 33.0517 29.8697 33.0585C29.7707 33.0654 29.6717 33.0444 29.5841 32.9977L24.969 30.5712C24.6649 30.4116 24.3266 30.3282 23.9832 30.3282C23.6397 30.3282 23.3014 30.4116 22.9973 30.5712L18.3833 32.9977C18.2956 33.0441 18.1968 33.0649 18.0979 33.0579C17.999 33.0509 17.9041 33.0162 17.8239 32.9579C17.7437 32.8996 17.6815 32.82 17.6444 32.7281C17.6072 32.6362 17.5966 32.5357 17.6138 32.4381L18.4942 27.3023C18.5523 26.9633 18.5271 26.6152 18.4208 26.288C18.3144 25.9609 18.13 25.6646 17.8836 25.4246L14.15 21.7899C14.0786 21.721 14.028 21.6334 14.004 21.5371C13.98 21.4409 13.9835 21.3398 14.0141 21.2454C14.0448 21.1511 14.1013 21.0672 14.1772 21.0034C14.2532 20.9396 14.3456 20.8984 14.4438 20.8845L19.6055 20.13C19.9455 20.0805 20.2684 19.9491 20.5465 19.7472C20.8245 19.5452 21.0492 19.2788 21.2014 18.9707L23.509 14.2947Z" stroke="#E50914" stroke-width="1.99872" stroke-linecap="round" stroke-linejoin="round"/>
</svg>
