<svg width="48" height="48" viewBox="0 0 48 48" fill="none" xmlns="http://www.w3.org/2000/svg">
<path d="M0 10C0 4.47715 4.47715 0 10 0H37.9867C43.5095 0 47.9867 4.47715 47.9867 10V37.9867C47.9867 43.5095 43.5095 47.9867 37.9867 47.9867H10C4.47715 47.9867 0 43.5095 0 37.9867V10Z" fill="#E50914" fill-opacity="0.1"/>
<path d="M27.9832 32.9874V30.9886C27.9832 29.9285 27.562 28.9117 26.8124 28.162C26.0627 27.4124 25.046 26.9912 23.9858 26.9912H17.9896C16.9294 26.9912 15.9127 27.4124 15.163 28.162C14.4133 28.9117 13.9922 29.9285 13.9922 30.9886V32.9874" stroke="#E50914" stroke-width="1.99872" stroke-linecap="round" stroke-linejoin="round"/>
<path d="M27.9805 15.127C28.8377 15.3492 29.5968 15.8498 30.1388 16.5501C30.6807 17.2504 30.9747 18.1109 30.9747 18.9965C30.9747 19.882 30.6807 20.7425 30.1388 21.4428C29.5968 22.1432 28.8377 22.6438 27.9805 22.866" stroke="#E50914" stroke-width="1.99872" stroke-linecap="round" stroke-linejoin="round"/>
<path d="M33.9785 32.9873V30.9886C33.9779 30.1029 33.6831 29.2425 33.1404 28.5425C32.5978 27.8425 31.838 27.3425 30.9805 27.1211" stroke="#E50914" stroke-width="1.99872" stroke-linecap="round" stroke-linejoin="round"/>
<path d="M20.9857 22.9939C23.1934 22.9939 24.9831 21.2042 24.9831 18.9965C24.9831 16.7887 23.1934 14.999 20.9857 14.999C18.778 14.999 16.9883 16.7887 16.9883 18.9965C16.9883 21.2042 18.778 22.9939 20.9857 22.9939Z" stroke="#E50914" stroke-width="1.99872" stroke-linecap="round" stroke-linejoin="round"/>
</svg>
