<svg width="18" height="18" viewBox="0 0 18 18" fill="none" xmlns="http://www.w3.org/2000/svg">
<g clip-path="url(#clip0_387_3920)">
<path d="M14.576 7.28851C14.576 10.9278 10.5388 14.7179 9.1831 15.8885C9.05681 15.9834 8.90307 16.0348 8.74505 16.0348C8.58703 16.0348 8.43329 15.9834 8.307 15.8885C6.95129 14.7179 2.91406 10.9278 2.91406 7.28851C2.91406 5.74203 3.5284 4.2589 4.62192 3.16538C5.71544 2.07185 7.19857 1.45752 8.74505 1.45752C10.2915 1.45752 11.7747 2.07185 12.8682 3.16538C13.9617 4.2589 14.576 5.74203 14.576 7.28851Z" stroke="#030213" stroke-width="1.45775" stroke-linecap="round" stroke-linejoin="round"/>
<path d="M8.74521 9.47529C9.95285 9.47529 10.9318 8.49631 10.9318 7.28867C10.9318 6.08103 9.95285 5.10205 8.74521 5.10205C7.53758 5.10205 6.55859 6.08103 6.55859 7.28867C6.55859 8.49631 7.53758 9.47529 8.74521 9.47529Z" stroke="#030213" stroke-width="1.45775" stroke-linecap="round" stroke-linejoin="round"/>
</g>
<defs>
<clipPath id="clip0_387_3920">
<rect width="17.493" height="17.493" fill="white"/>
</clipPath>
</defs>
</svg>
