<svg width="30" height="30" viewBox="0 0 30 30" fill="none" xmlns="http://www.w3.org/2000/svg">
<path d="M7.40749 17.8446L6.45817 21.3886L2.98841 21.462C1.95146 19.5387 1.36328 17.3382 1.36328 14.9997C1.36328 12.7385 1.91321 10.6061 2.888 8.72852H2.88874L5.97781 9.29485L7.331 12.3654C7.04778 13.1911 6.89341 14.0774 6.89341 14.9997C6.89352 16.0007 7.07484 16.9598 7.40749 17.8446Z" fill="#FBBB00"/>
<path d="M28.3971 12.4521C28.5538 13.277 28.6354 14.1289 28.6354 14.9996C28.6354 15.9759 28.5328 16.9282 28.3372 17.8468C27.6734 20.9726 25.9389 23.7021 23.536 25.6337L23.5353 25.633L19.6445 25.4344L19.0938 21.9969C20.6882 21.0618 21.9342 19.5985 22.5906 17.8468H15.2988V12.4521H22.6969H28.3971Z" fill="#518EF8"/>
<path d="M23.5357 25.6332L23.5365 25.6339C21.1996 27.5123 18.231 28.6361 14.9995 28.6361C9.80646 28.6361 5.29149 25.7336 2.98828 21.4621L7.40737 17.8447C8.55895 20.9181 11.5237 23.106 14.9995 23.106C16.4935 23.106 17.8931 22.7021 19.0942 21.9971L23.5357 25.6332Z" fill="#28B446"/>
<path d="M23.7044 4.50263L19.2868 8.11925C18.0438 7.34229 16.5745 6.89347 15.0003 6.89347C11.4459 6.89347 8.42562 9.18166 7.33173 12.3653L2.88942 8.72841H2.88867C5.15817 4.35279 9.73008 1.36328 15.0003 1.36328C18.309 1.36328 21.3427 2.54187 23.7044 4.50263Z" fill="#F14336"/>
</svg>
