<svg width="14" height="14" viewBox="0 0 14 14" fill="none" xmlns="http://www.w3.org/2000/svg">
<g clip-path="url(#clip0_387_3816)">
<path d="M8.75 12.25V7.58333C8.75 7.42862 8.68854 7.28025 8.57915 7.17085C8.46975 7.06146 8.32138 7 8.16667 7H5.83333C5.67862 7 5.53025 7.06146 5.42085 7.17085C5.31146 7.28025 5.25 7.42862 5.25 7.58333V12.25" stroke="#717182" stroke-width="1.16667" stroke-linecap="round" stroke-linejoin="round"/>
<path d="M1.75 5.83345C1.74996 5.66374 1.78694 5.49606 1.85838 5.34212C1.92981 5.18817 2.03397 5.05167 2.16358 4.94212L6.24692 1.44212C6.45749 1.26415 6.72429 1.1665 7 1.1665C7.27571 1.1665 7.54251 1.26415 7.75308 1.44212L11.8364 4.94212C11.966 5.05167 12.0702 5.18817 12.1416 5.34212C12.2131 5.49606 12.25 5.66374 12.25 5.83345V11.0834C12.25 11.3929 12.1271 11.6896 11.9083 11.9084C11.6895 12.1272 11.3928 12.2501 11.0833 12.2501H2.91667C2.60725 12.2501 2.3105 12.1272 2.09171 11.9084C1.87292 11.6896 1.75 11.3929 1.75 11.0834V5.83345Z" stroke="#717182" stroke-width="1.16667" stroke-linecap="round" stroke-linejoin="round"/>
</g>
<defs>
<clipPath id="clip0_387_3816">
<rect width="14" height="14" fill="white"/>
</clipPath>
</defs>
</svg>
