<svg width="20" height="20" viewBox="0 0 20 20" fill="none" xmlns="http://www.w3.org/2000/svg">
<path d="M15.8287 9.16357H4.16608C3.24593 9.16357 2.5 9.90951 2.5 10.8297V16.6609C2.5 17.5811 3.24593 18.327 4.16608 18.327H15.8287C16.7488 18.327 17.4947 17.5811 17.4947 16.6609V10.8297C17.4947 9.90951 16.7488 9.16357 15.8287 9.16357Z" stroke="white" stroke-opacity="0.5" stroke-width="1.66608" stroke-linecap="round"/>
<path d="M5.83203 9.16339V5.83122C5.83203 4.72654 6.27086 3.6671 7.05199 2.88598C7.83312 2.10485 8.89256 1.66602 9.99724 1.66602C11.1019 1.66602 12.1614 2.10485 12.9425 2.88598C13.7236 3.6671 14.1624 4.72654 14.1624 5.83122V9.16339" stroke="white" stroke-opacity="0.5" stroke-width="1.66608" stroke-linecap="round"/>
</svg>
