<svg width="16" height="16" viewBox="0 0 16 16" fill="none" xmlns="http://www.w3.org/2000/svg">
<g clip-path="url(#clip0_116_2271)">
<path d="M7.67684 1.52843C7.70602 1.46946 7.75111 1.41983 7.80701 1.38512C7.86291 1.35042 7.92739 1.33203 7.99319 1.33203C8.05898 1.33203 8.12346 1.35042 8.17936 1.38512C8.23526 1.41983 8.28035 1.46946 8.30953 1.52843L9.84798 4.64462C9.94933 4.84973 10.0989 5.02718 10.284 5.16174C10.469 5.2963 10.6839 5.38395 10.9102 5.41718L14.3508 5.92067C14.416 5.93012 14.4772 5.95761 14.5276 6.00006C14.578 6.0425 14.6155 6.09819 14.6358 6.16083C14.6562 6.22347 14.6586 6.29057 14.6429 6.35452C14.6271 6.41848 14.5937 6.47674 14.5466 6.52273L12.0584 8.94562C11.8943 9.10553 11.7716 9.30292 11.7007 9.52079C11.6298 9.73867 11.6129 9.97051 11.6515 10.1964L12.2389 13.6196C12.2504 13.6847 12.2434 13.7518 12.2186 13.8132C12.1938 13.8745 12.1523 13.9277 12.0987 13.9666C12.0452 14.0054 11.9818 14.0285 11.9158 14.0331C11.8498 14.0377 11.7838 14.0236 11.7254 13.9925L8.64986 12.3755C8.44721 12.2691 8.22174 12.2135 7.99285 12.2135C7.76396 12.2135 7.5385 12.2691 7.33585 12.3755L4.26095 13.9925C4.20256 14.0234 4.13667 14.0373 4.07077 14.0327C4.00487 14.028 3.94161 14.0049 3.88819 13.966C3.83476 13.9272 3.79331 13.8741 3.76855 13.8129C3.74379 13.7516 3.73671 13.6846 3.74813 13.6196L4.33487 10.197C4.37363 9.97108 4.35684 9.73909 4.28595 9.52107C4.21505 9.30306 4.09219 9.10556 3.92795 8.94562L1.43979 6.5234C1.39223 6.47746 1.35853 6.4191 1.34253 6.35495C1.32652 6.2908 1.32886 6.22344 1.34927 6.16056C1.36967 6.09767 1.40733 6.04178 1.45796 5.99925C1.50858 5.95672 1.57013 5.92926 1.63559 5.92L5.07546 5.41718C5.30207 5.38421 5.51727 5.29667 5.70255 5.16209C5.88783 5.02751 6.03762 4.84993 6.13905 4.64462L7.67684 1.52843Z" stroke="#D1D5DC" stroke-width="1.33199" stroke-linecap="round" stroke-linejoin="round"/>
</g>
<defs>
<clipPath id="clip0_116_2271">
<rect width="15.9839" height="15.9839" fill="white"/>
</clipPath>
</defs>
</svg>
