<svg width="20" height="20" viewBox="0 0 20 20" fill="none" xmlns="http://www.w3.org/2000/svg">
<g clip-path="url(#clip0_116_1881)">
<path d="M8.55469 17.4937C8.70092 17.7469 8.91124 17.9572 9.16451 18.1034C9.41778 18.2496 9.70507 18.3266 9.99752 18.3266C10.29 18.3266 10.5773 18.2496 10.8305 18.1034C11.0838 17.9572 11.2941 17.7469 11.4403 17.4937" stroke="white" stroke-width="1.66608" stroke-linecap="round" stroke-linejoin="round"/>
<path d="M2.71765 12.7671C2.60882 12.8864 2.53701 13.0347 2.51093 13.1941C2.48486 13.3534 2.50566 13.5169 2.57079 13.6646C2.63592 13.8124 2.74259 13.938 2.87781 14.0262C3.01302 14.1145 3.17097 14.1615 3.33243 14.1616H16.6611C16.8225 14.1617 16.9805 14.1148 17.1158 14.0268C17.2511 13.9387 17.3579 13.8132 17.4232 13.6656C17.4885 13.5179 17.5095 13.3545 17.4837 13.1951C17.4578 13.0358 17.3862 12.8874 17.2775 12.768C16.1696 11.6259 14.995 10.4121 14.995 6.66426C14.995 5.33865 14.4684 4.06732 13.5311 3.12997C12.5937 2.19262 11.3224 1.66602 9.99676 1.66602C8.67115 1.66602 7.39982 2.19262 6.46247 3.12997C5.52512 4.06732 4.99852 5.33865 4.99852 6.66426C4.99852 10.4121 3.82309 11.6259 2.71765 12.7671Z" stroke="white" stroke-width="1.66608" stroke-linecap="round" stroke-linejoin="round"/>
</g>
<defs>
<clipPath id="clip0_116_1881">
<rect width="19.993" height="19.993" fill="white"/>
</clipPath>
</defs>
</svg>
