<svg width="12" height="12" viewBox="0 0 12 12" fill="none" xmlns="http://www.w3.org/2000/svg">
<g clip-path="url(#clip0_116_2175)">
<path d="M5.76034 1.14686C5.78224 1.10262 5.81607 1.06538 5.85801 1.03935C5.89994 1.01331 5.94833 0.999512 5.99769 0.999512C6.04705 0.999512 6.09543 1.01331 6.13737 1.03935C6.17931 1.06538 6.21314 1.10262 6.23504 1.14686L7.3893 3.48486C7.46534 3.63875 7.57758 3.77188 7.7164 3.87284C7.85521 3.9738 8.01646 4.03956 8.18628 4.06449L10.7676 4.44225C10.8165 4.44933 10.8625 4.46997 10.9003 4.50181C10.9381 4.53365 10.9662 4.57544 10.9815 4.62243C10.9968 4.66943 10.9986 4.71977 10.9868 4.76776C10.9749 4.81574 10.9499 4.85946 10.9145 4.89396L9.04773 6.71179C8.92462 6.83176 8.8325 6.97986 8.77932 7.14333C8.72614 7.3068 8.71348 7.48074 8.74243 7.65019L9.18314 10.2185C9.19178 10.2674 9.1865 10.3178 9.1679 10.3638C9.14931 10.4098 9.11815 10.4497 9.07798 10.4789C9.03782 10.508 8.99026 10.5253 8.94073 10.5288C8.89121 10.5322 8.84171 10.5217 8.79789 10.4984L6.49037 9.28514C6.33833 9.2053 6.16917 9.16359 5.99744 9.16359C5.82571 9.16359 5.65655 9.2053 5.50451 9.28514L3.19749 10.4984C3.15368 10.5215 3.10425 10.532 3.05481 10.5285C3.00536 10.525 2.9579 10.5076 2.91782 10.4785C2.87773 10.4493 2.84663 10.4095 2.82805 10.3636C2.80948 10.3176 2.80417 10.2674 2.81274 10.2185L3.25295 7.65069C3.28203 7.48116 3.26943 7.30711 3.21625 7.14354C3.16306 6.97996 3.07087 6.83179 2.94765 6.71179L1.08085 4.89446C1.04517 4.86 1.01988 4.8162 1.00788 4.76807C0.995868 4.71994 0.99762 4.66941 1.01293 4.62223C1.02824 4.57504 1.0565 4.53311 1.09448 4.5012C1.13246 4.46929 1.17864 4.44869 1.22775 4.44175L3.8086 4.06449C3.97861 4.03976 4.14008 3.97408 4.27909 3.87311C4.41809 3.77214 4.53048 3.6389 4.60658 3.48486L5.76034 1.14686Z" fill="#E50914" stroke="#E50914" stroke-width="0.999358" stroke-linecap="round" stroke-linejoin="round"/>
</g>
<defs>
<clipPath id="clip0_116_2175">
<rect width="11.9923" height="11.9923" fill="white"/>
</clipPath>
</defs>
</svg>
