<svg width="24" height="24" viewBox="0 0 24 24" fill="none" xmlns="http://www.w3.org/2000/svg">
<path d="M11.5168 2.29373C11.5606 2.20525 11.6282 2.13076 11.7121 2.07869C11.796 2.02662 11.8927 1.99902 11.9915 1.99902C12.0902 1.99902 12.187 2.02662 12.2708 2.07869C12.3547 2.13076 12.4224 2.20525 12.4662 2.29373L14.7747 6.96972C14.9268 7.27749 15.1513 7.54376 15.4289 7.74568C15.7065 7.94759 16.029 8.07912 16.3687 8.12898L21.5313 8.88449C21.6292 8.89867 21.7211 8.93993 21.7967 9.00362C21.8723 9.0673 21.9285 9.15087 21.9591 9.24487C21.9897 9.33887 21.9933 9.43954 21.9696 9.53551C21.946 9.63148 21.8959 9.71891 21.8252 9.78791L18.0916 13.4236C17.8453 13.6635 17.6611 13.9597 17.5547 14.2867C17.4484 14.6136 17.423 14.9615 17.4809 15.3004L18.3624 20.4371C18.3796 20.5348 18.3691 20.6355 18.3319 20.7276C18.2947 20.8196 18.2324 20.8994 18.1521 20.9577C18.0717 21.0161 17.9766 21.0507 17.8776 21.0576C17.7785 21.0645 17.6795 21.0434 17.5919 20.9967L12.9768 18.5703C12.6728 18.4106 12.3344 18.3272 11.991 18.3272C11.6475 18.3272 11.3092 18.4106 11.0051 18.5703L6.39107 20.9967C6.30346 21.0431 6.20459 21.064 6.1057 21.0569C6.00682 21.0499 5.9119 21.0153 5.83172 20.957C5.75155 20.8987 5.68935 20.819 5.6522 20.7271C5.61505 20.6352 5.60443 20.5347 5.62156 20.4371L6.502 15.3014C6.56016 14.9623 6.53496 14.6142 6.42858 14.2871C6.32221 13.9599 6.13784 13.6636 5.89139 13.4236L2.15779 9.78891C2.08643 9.71999 2.03586 9.63241 2.01185 9.53615C1.98783 9.43989 1.99133 9.33882 2.02196 9.24445C2.05258 9.15009 2.10909 9.06622 2.18505 9.0024C2.26101 8.93858 2.35337 8.89738 2.4516 8.88349L7.61329 8.12898C7.95332 8.07951 8.27625 7.94815 8.55426 7.74621C8.83228 7.54427 9.05706 7.2778 9.20926 6.96972L11.5168 2.29373Z" stroke="#E50914" stroke-width="1.99872" stroke-linecap="round" stroke-linejoin="round"/>
</svg>
