<svg width="16" height="16" viewBox="0 0 16 16" fill="none" xmlns="http://www.w3.org/2000/svg">
<g clip-path="url(#clip0_116_2183)">
<path d="M7.99005 1.99805H3.32808C2.97482 1.99805 2.63602 2.13838 2.38622 2.38818C2.13643 2.63797 1.99609 2.97677 1.99609 3.33004V12.654C1.99609 13.0072 2.13643 13.346 2.38622 13.5958C2.63602 13.8456 2.97482 13.986 3.32808 13.986H12.652C13.0053 13.986 13.3441 13.8456 13.5939 13.5958C13.8437 13.346 13.984 13.0072 13.984 12.654V7.99201" stroke="black" stroke-width="1.33199" stroke-linecap="round" stroke-linejoin="round"/>
<path d="M12.2366 1.74827C12.5015 1.48332 12.8609 1.33447 13.2356 1.33447C13.6103 1.33447 13.9696 1.48332 14.2346 1.74827C14.4995 2.01322 14.6484 2.37257 14.6484 2.74726C14.6484 3.12196 14.4995 3.48131 14.2346 3.74626L8.23196 9.74954C8.07381 9.90754 7.87845 10.0232 7.66386 10.0859L5.75046 10.6453C5.69315 10.662 5.6324 10.663 5.57457 10.6482C5.51674 10.6334 5.46396 10.6033 5.42175 10.5611C5.37954 10.5189 5.34945 10.4661 5.33464 10.4083C5.31982 10.3504 5.32082 10.2897 5.33754 10.2324L5.89697 8.31898C5.95993 8.10456 6.07582 7.90943 6.23397 7.75155L12.2366 1.74827Z" stroke="black" stroke-width="1.33199" stroke-linecap="round" stroke-linejoin="round"/>
</g>
<defs>
<clipPath id="clip0_116_2183">
<rect width="15.9839" height="15.9839" fill="white"/>
</clipPath>
</defs>
</svg>
