<svg width="16" height="16" viewBox="0 0 16 16" fill="none" xmlns="http://www.w3.org/2000/svg">
<g clip-path="url(#clip0_116_2262)">
<path d="M10.656 13.9857V12.6537C10.656 11.9472 10.3753 11.2696 9.87571 10.77C9.37611 10.2704 8.69852 9.98975 7.99199 9.98975H3.99601C3.28948 9.98975 2.61189 10.2704 2.11229 10.77C1.6127 11.2696 1.33203 11.9472 1.33203 12.6537V13.9857" stroke="#D1D5DC" stroke-width="1.33199" stroke-linecap="round" stroke-linejoin="round"/>
<path d="M10.6562 2.08301C11.2275 2.23111 11.7334 2.5647 12.0946 3.03143C12.4557 3.49816 12.6517 4.0716 12.6517 4.66174C12.6517 5.25189 12.4557 5.82533 12.0946 6.29206C11.7334 6.75879 11.2275 7.09238 10.6562 7.24048" stroke="#D1D5DC" stroke-width="1.33199" stroke-linecap="round" stroke-linejoin="round"/>
<path d="M14.6503 13.9861V12.6541C14.6499 12.0638 14.4534 11.4904 14.0918 11.0239C13.7302 10.5574 13.2239 10.2242 12.6523 10.0767" stroke="#D1D5DC" stroke-width="1.33199" stroke-linecap="round" stroke-linejoin="round"/>
<path d="M5.99211 7.32601C7.46338 7.32601 8.65609 6.13331 8.65609 4.66203C8.65609 3.19075 7.46338 1.99805 5.99211 1.99805C4.52083 1.99805 3.32812 3.19075 3.32812 4.66203C3.32812 6.13331 4.52083 7.32601 5.99211 7.32601Z" stroke="#D1D5DC" stroke-width="1.33199" stroke-linecap="round" stroke-linejoin="round"/>
</g>
<defs>
<clipPath id="clip0_116_2262">
<rect width="15.9839" height="15.9839" fill="white"/>
</clipPath>
</defs>
</svg>
