<svg width="16" height="16" viewBox="0 0 16 16" fill="none" xmlns="http://www.w3.org/2000/svg">
<path d="M9.98816 13.9861V8.65818C9.98816 8.48155 9.91799 8.31215 9.7931 8.18725C9.6682 8.06235 9.4988 7.99219 9.32217 7.99219H6.65818C6.48155 7.99219 6.31215 8.06235 6.18725 8.18725C6.06235 8.31215 5.99219 8.48155 5.99219 8.65818V13.9861" stroke="#171717" stroke-width="1.33199" stroke-linecap="round" stroke-linejoin="round"/>
<path d="M1.99609 6.65983C1.99605 6.46607 2.03827 6.27463 2.11983 6.09887C2.20138 5.92311 2.3203 5.76726 2.46828 5.64219L7.13025 1.64621C7.37067 1.44302 7.67527 1.33154 7.99005 1.33154C8.30483 1.33154 8.60944 1.44302 8.84985 1.64621L13.5118 5.64219C13.6598 5.76726 13.7787 5.92311 13.8603 6.09887C13.9418 6.27463 13.9841 6.46607 13.984 6.65983V12.6538C13.984 13.0071 13.8437 13.3458 13.5939 13.5956C13.3441 13.8454 13.0053 13.9858 12.652 13.9858H3.32808C2.97482 13.9858 2.63602 13.8454 2.38622 13.5956C2.13643 13.3458 1.99609 13.0071 1.99609 12.6538V6.65983Z" stroke="#171717" stroke-width="1.33199" stroke-linecap="round" stroke-linejoin="round"/>
</svg>
