<svg width="20" height="20" viewBox="0 0 20 20" fill="none" xmlns="http://www.w3.org/2000/svg">
<g clip-path="url(#clip0_144_5348)">
<path d="M8.55469 17.4922C8.70091 17.7454 8.9112 17.9557 9.16444 18.1019C9.41768 18.2481 9.70495 18.3251 9.99736 18.3251C10.2898 18.3251 10.577 18.2481 10.8303 18.1019C11.0835 17.9557 11.2938 17.7454 11.44 17.4922" stroke="white" stroke-width="1.6659" stroke-linecap="round" stroke-linejoin="round"/>
<path d="M2.71762 12.7659C2.60881 12.8852 2.537 13.0335 2.51093 13.1928C2.48486 13.3521 2.50565 13.5156 2.57078 13.6633C2.63591 13.8111 2.74256 13.9367 2.87776 14.0249C3.01297 14.1131 3.1709 14.1602 3.33234 14.1603H16.6595C16.821 14.1603 16.9789 14.1135 17.1142 14.0254C17.2495 13.9374 17.3563 13.8119 17.4216 13.6643C17.4869 13.5166 17.5079 13.3532 17.482 13.1939C17.4562 13.0345 17.3846 12.8861 17.2759 12.7667C16.1681 11.6248 14.9936 10.4112 14.9936 6.66372C14.9936 5.33824 14.4671 4.06706 13.5299 3.12981C12.5926 2.19256 11.3214 1.66602 9.99594 1.66602C8.67047 1.66602 7.39929 2.19256 6.46204 3.12981C5.52478 4.06706 4.99824 5.33824 4.99824 6.66372C4.99824 10.4112 3.82295 11.6248 2.71762 12.7659Z" stroke="white" stroke-width="1.6659" stroke-linecap="round" stroke-linejoin="round"/>
</g>
<defs>
<clipPath id="clip0_144_5348">
<rect width="19.9908" height="19.9908" fill="white"/>
</clipPath>
</defs>
</svg>
