<svg width="24" height="24" viewBox="0 0 24 24" fill="none" xmlns="http://www.w3.org/2000/svg">
<path d="M15.991 20.9864V18.9877C15.991 17.9275 15.5699 16.9107 14.8202 16.1611C14.0705 15.4114 13.0538 14.9902 11.9936 14.9902H5.99743C4.93725 14.9902 3.92048 15.4114 3.17082 16.1611C2.42116 16.9107 2 17.9275 2 18.9877V20.9864" stroke="#E50914" stroke-width="1.99872" stroke-linecap="round" stroke-linejoin="round"/>
<path d="M15.9883 3.12598C16.8455 3.3482 17.6046 3.84878 18.1466 4.54912C18.6885 5.24947 18.9826 6.10995 18.9826 6.99549C18.9826 7.88103 18.6885 8.74151 18.1466 9.44186C17.6046 10.1422 16.8455 10.6428 15.9883 10.865" stroke="#E50914" stroke-width="1.99872" stroke-linecap="round" stroke-linejoin="round"/>
<path d="M21.9864 20.9863V18.9876C21.9857 18.1019 21.6909 17.2415 21.1483 16.5415C20.6056 15.8415 19.8459 15.3415 18.9883 15.1201" stroke="#E50914" stroke-width="1.99872" stroke-linecap="round" stroke-linejoin="round"/>
<path d="M8.99353 10.9929C11.2012 10.9929 12.991 9.2032 12.991 6.99548C12.991 4.78776 11.2012 2.99805 8.99353 2.99805C6.7858 2.99805 4.99609 4.78776 4.99609 6.99548C4.99609 9.2032 6.7858 10.9929 8.99353 10.9929Z" stroke="#E50914" stroke-width="1.99872" stroke-linecap="round" stroke-linejoin="round"/>
</svg>
