<svg width="16" height="16" viewBox="0 0 16 16" fill="none" xmlns="http://www.w3.org/2000/svg">
<g clip-path="url(#clip0_116_2279)">
<path d="M6.44114 2.75471C6.47783 2.36866 6.65714 2.01016 6.94403 1.74924C7.23092 1.48833 7.60478 1.34375 7.99257 1.34375C8.38036 1.34375 8.75422 1.48833 9.04111 1.74924C9.328 2.01016 9.50731 2.36866 9.54401 2.75471C9.56606 3.0041 9.64788 3.2445 9.78252 3.45556C9.91717 3.66663 10.1007 3.84215 10.3175 3.96727C10.5344 4.09239 10.7782 4.16343 11.0283 4.17436C11.2784 4.18529 11.5275 4.13581 11.7544 4.03009C12.1068 3.87011 12.5061 3.84696 12.8747 3.96515C13.2432 4.08334 13.5545 4.33442 13.7481 4.66952C13.9417 5.00462 14.0037 5.39976 13.922 5.77804C13.8403 6.15633 13.6208 6.49069 13.3062 6.71605C13.1013 6.85981 12.9341 7.05079 12.8187 7.27284C12.7032 7.4949 12.6429 7.74149 12.6429 7.99177C12.6429 8.24204 12.7032 8.48864 12.8187 8.71069C12.9341 8.93275 13.1013 9.12373 13.3062 9.26748C13.6208 9.49284 13.8403 9.8272 13.922 10.2055C14.0037 10.5838 13.9417 10.9789 13.7481 11.314C13.5545 11.6491 13.2432 11.9002 12.8747 12.0184C12.5061 12.1366 12.1068 12.1134 11.7544 11.9534C11.5275 11.8477 11.2784 11.7982 11.0283 11.8092C10.7782 11.8201 10.5344 11.8911 10.3175 12.0163C10.1007 12.1414 9.91717 12.3169 9.78252 12.528C9.64788 12.739 9.56606 12.9794 9.54401 13.2288C9.50731 13.6149 9.328 13.9734 9.04111 14.2343C8.75422 14.4952 8.38036 14.6398 7.99257 14.6398C7.60478 14.6398 7.23092 14.4952 6.94403 14.2343C6.65714 13.9734 6.47783 13.6149 6.44114 13.2288C6.41912 12.9793 6.33731 12.7389 6.20262 12.5277C6.06793 12.3166 5.88434 12.141 5.6674 12.0159C5.45046 11.8907 5.20656 11.8197 4.95635 11.8089C4.70614 11.798 4.457 11.8476 4.23003 11.9534C3.87764 12.1134 3.47834 12.1366 3.10983 12.0184C2.74131 11.9002 2.42996 11.6491 2.23636 11.314C2.04276 10.9789 1.98077 10.5838 2.06245 10.2055C2.14414 9.8272 2.36365 9.49284 2.67826 9.26748C2.88313 9.12373 3.05037 8.93275 3.16583 8.71069C3.28128 8.48864 3.34156 8.24204 3.34156 7.99177C3.34156 7.74149 3.28128 7.4949 3.16583 7.27284C3.05037 7.05079 2.88313 6.85981 2.67826 6.71605C2.36409 6.49058 2.14496 6.15635 2.06348 5.77832C1.982 5.40029 2.04397 5.00547 2.23736 4.67059C2.43075 4.33571 2.74174 4.08469 3.10989 3.96632C3.47803 3.84794 3.87704 3.87068 4.22936 4.03009C4.45631 4.13581 4.70538 4.18529 4.9555 4.17436C5.20562 4.16343 5.44942 4.09239 5.66627 3.96727C5.88313 3.84215 6.06664 3.66663 6.20129 3.45556C6.33593 3.2445 6.41775 3.0041 6.4398 2.75471" stroke="#D1D5DC" stroke-width="1.33199" stroke-linecap="round" stroke-linejoin="round"/>
<path d="M7.99017 9.99011C9.09363 9.99011 9.98816 9.09558 9.98816 7.99213C9.98816 6.88867 9.09363 5.99414 7.99017 5.99414C6.88672 5.99414 5.99219 6.88867 5.99219 7.99213C5.99219 9.09558 6.88672 9.99011 7.99017 9.99011Z" stroke="#D1D5DC" stroke-width="1.33199" stroke-linecap="round" stroke-linejoin="round"/>
</g>
<defs>
<clipPath id="clip0_116_2279">
<rect width="15.9839" height="15.9839" fill="white"/>
</clipPath>
</defs>
</svg>
