<svg width="14" height="14" viewBox="0 0 14 14" fill="none" xmlns="http://www.w3.org/2000/svg">
<g clip-path="url(#clip0_387_3838)">
<path d="M8.06997 9.6645C8.19044 9.71983 8.32617 9.73247 8.45479 9.70034C8.58341 9.66822 8.69725 9.59324 8.77755 9.48775L8.98464 9.2165C9.09331 9.07161 9.23422 8.954 9.39622 8.87301C9.55822 8.79201 9.73685 8.74984 9.91797 8.74984H11.668C11.9774 8.74984 12.2741 8.87275 12.4929 9.09155C12.7117 9.31034 12.8346 9.60709 12.8346 9.9165V11.6665C12.8346 11.9759 12.7117 12.2727 12.4929 12.4915C12.2741 12.7103 11.9774 12.8332 11.668 12.8332C8.8832 12.8332 6.21248 11.7269 4.24335 9.75779C2.27422 7.78866 1.16797 5.11794 1.16797 2.33317C1.16797 2.02375 1.29089 1.72701 1.50968 1.50821C1.72847 1.28942 2.02522 1.1665 2.33464 1.1665H4.08464C4.39405 1.1665 4.6908 1.28942 4.90959 1.50821C5.12839 1.72701 5.2513 2.02375 5.2513 2.33317V4.08317C5.2513 4.26429 5.20913 4.44292 5.12813 4.60492C5.04714 4.76692 4.92953 4.90783 4.78464 5.0165L4.51164 5.22125C4.40455 5.30302 4.32906 5.41935 4.29801 5.55046C4.26696 5.68157 4.28226 5.81939 4.3413 5.9405C5.13853 7.55976 6.44972 8.8693 8.06997 9.6645Z" stroke="#717182" stroke-width="1.16667" stroke-linecap="round" stroke-linejoin="round"/>
</g>
<defs>
<clipPath id="clip0_387_3838">
<rect width="14" height="14" fill="white"/>
</clipPath>
</defs>
</svg>
